<?xml version="1.0" standalone="yes"?>

<svg version="1.1" viewBox="0.0 0.0 960.0 720.0" fill="none" stroke="none" stroke-linecap="square" stroke-miterlimit="10" xmlns="http://www.w3.org/2000/svg" xmlns:xlink="http://www.w3.org/1999/xlink"><clipPath id="p.0"><path d="m0 0l960.0 0l0 720.0l-960.0 0l0 -720.0z" clip-rule="nonzero"></path></clipPath><g clip-path="url(#p.0)"><path fill="#000000" fill-opacity="0.0" d="m0 0l960.0 0l0 720.0l-960.0 0z" fill-rule="nonzero"></path><path fill="#ffffff" d="m57.244934 81.82397l0 0c0 -3.0621796 2.4823837 -5.5445557 5.5445557 -5.5445557l110.53749 0c1.4705048 0 2.880783 0.5841522 3.9205933 1.6239624c1.0397949 1.0398026 1.6239624 2.4500809 1.6239624 3.9205933l0 22.177559c0 3.062172 -2.4823914 5.5445557 -5.5445557 5.5445557l-110.53749 0c-3.062172 0 -5.5445557 -2.4823837 -5.5445557 -5.5445557z" fill-rule="nonzero"></path><path stroke="#ffffff" stroke-width="2.0" stroke-linejoin="round" stroke-linecap="butt" d="m57.244934 81.82397l0 0c0 -3.0621796 2.4823837 -5.5445557 5.5445557 -5.5445557l110.53749 0c1.4705048 0 2.880783 0.5841522 3.9205933 1.6239624c1.0397949 1.0398026 1.6239624 2.4500809 1.6239624 3.9205933l0 22.177559c0 3.062172 -2.4823914 5.5445557 -5.5445557 5.5445557l-110.53749 0c-3.062172 0 -5.5445557 -2.4823837 -5.5445557 -5.5445557z" fill-rule="nonzero"></path><path fill="#000000" fill-opacity="0.0" d="m57.245102 72.12015l136.50958 0l0 26.814316l-136.50958 0z" fill-rule="nonzero"></path><path fill="#222222" d="m72.3076 96.66765l-5.265625 -4.453125l5.265625 -4.421875l1.21875 1.234375l-3.875 3.171875l3.875 3.21875l-1.21875 1.25zm19.375 -0.59375q-0.671875 0.28125 -1.3125 0.40625q-0.640625 0.140625 -1.328125 0.140625q-1.09375 0 -1.953125 -0.328125q-0.84375 -0.328125 -1.421875 -0.96875q-0.578125 -0.640625 -0.890625 -1.578125q-0.296875 -0.953125 -0.296875 -2.21875q0 -1.28125 0.328125 -2.28125q0.328125 -1.015625 0.9375 -1.703125q0.609375 -0.6875 1.484375 -1.046875q0.875 -0.375 1.953125 -0.375q0.359375 0 0.65625 0.015625q0.3125 0.015625 0.609375 0.0625q0.296875 0.046875 0.59375 0.125q0.3125 0.0625 0.640625 0.171875l0 1.90625q-0.65625 -0.3125 -1.265625 -0.4375q-0.59375 -0.140625 -1.09375 -0.140625q-0.71875 0 -1.234375 0.265625q-0.515625 0.25 -0.859375 0.734375q-0.328125 0.46875 -0.484375 1.125q-0.15625 0.640625 -0.15625 1.421875q0 0.828125 0.15625 1.484375q0.171875 0.65625 0.5 1.109375q0.34375 0.453125 0.859375 0.6875q0.53125 0.234375 1.25 0.234375q0.25 0 0.546875 -0.046875q0.3125 -0.046875 0.609375 -0.125q0.3125 -0.09375 0.609375 -0.203125q0.3125 -0.109375 0.5625 -0.234375l0 1.796875zm5.3125 -2.484375q0.328125 0 0.609375 0.125q0.28125 0.125 0.484375 0.328125q0.203125 0.203125 0.3125 0.484375q0.125 0.28125 0.125 0.609375q0 0.3125 -0.125 0.59375q-0.109375 0.265625 -0.3125 0.484375q-0.203125 0.203125 -0.484375 0.328125q-0.28125 0.125 -0.609375 0.125q-0.3125 0 -0.59375 -0.125q-0.265625 -0.125 -0.46875 -0.328125q-0.203125 -0.21875 -0.328125 -0.484375q-0.109375 -0.28125 -0.109375 -0.59375q0 -0.328125 0.109375 -0.609375q0.125 -0.28125 0.328125 -0.484375q0.203125 -0.203125 0.46875 -0.328125q0.28125 -0.125 0.59375 -0.125zm12.953125 -2.265625q0 1.390625 -0.328125 2.40625q-0.328125 1.0 -0.890625 1.65625q-0.5625 0.640625 -1.328125 0.96875q-0.765625 0.3125 -1.625 0.3125q-2.015625 0 -3.03125 -1.34375q-1.015625 -1.34375 -1.015625 -3.90625q0 -1.390625 0.3125 -2.390625q0.328125 -1.015625 0.890625 -1.65625q0.578125 -0.65625 1.328125 -0.96875q0.765625 -0.3125 1.640625 -0.3125q2.015625 0 3.03125 1.34375q1.015625 1.328125 1.015625 3.890625zm-2.03125 0.09375q0 -1.8125 -0.484375 -2.703125q-0.484375 -0.890625 -1.59375 -0.890625q-0.5625 0 -0.953125 0.234375q-0.390625 0.234375 -0.640625 0.6875q-0.25 0.4375 -0.375 1.09375q-0.109375 0.640625 -0.109375 1.484375q0 1.8125 0.484375 2.703125q0.484375 0.890625 1.59375 0.890625q0.546875 0 0.9375 -0.21875q0.40625 -0.234375 0.65625 -0.671875q0.25 -0.453125 0.359375 -1.109375q0.125 -0.65625 0.125 -1.5zm6.671875 2.171875q0.328125 0 0.609375 0.125q0.28125 0.125 0.484375 0.328125q0.203125 0.203125 0.3125 0.484375q0.125 0.28125 0.125 0.609375q0 0.3125 -0.125 0.59375q-0.109375 0.265625 -0.3125 0.484375q-0.203125 0.203125 -0.484375 0.328125q-0.28125 0.125 -0.609375 0.125q-0.3125 0 -0.59375 -0.125q-0.265625 -0.125 -0.46875 -0.328125q-0.203125 -0.21875 -0.328125 -0.484375q-0.109375 -0.28125 -0.109375 -0.59375q0 -0.328125 0.109375 -0.609375q0.125 -0.28125 0.328125 -0.484375q0.203125 -0.203125 0.46875 -0.328125q0.28125 -0.125 0.59375 -0.125zm12.828125 -2.34375q0 1.1875 -0.296875 2.15625q-0.296875 0.96875 -0.921875 1.65625q-0.609375 0.671875 -1.578125 1.046875q-0.96875 0.375 -2.328125 0.375l-2.59375 0l0 -10.21875l3.03125 0q1.171875 0 2.046875 0.296875q0.875 0.296875 1.453125 0.90625q0.59375 0.609375 0.890625 1.546875q0.296875 0.9375 0.296875 2.234375zm-2.0625 0.125q0 -0.828125 -0.140625 -1.46875q-0.125 -0.65625 -0.453125 -1.109375q-0.3125 -0.453125 -0.84375 -0.6875q-0.53125 -0.234375 -1.3125 -0.234375l-0.984375 0l0 7.0l0.84375 0q1.421875 0 2.15625 -0.84375q0.734375 -0.84375 0.734375 -2.65625zm6.828125 2.21875q0.328125 0 0.609375 0.125q0.28125 0.125 0.484375 0.328125q0.203125 0.203125 0.3125 0.484375q0.125 0.28125 0.125 0.609375q0 0.3125 -0.125 0.59375q-0.109375 0.265625 -0.3125 0.484375q-0.203125 0.203125 -0.484375 0.328125q-0.28125 0.125 -0.609375 0.125q-0.3125 0 -0.59375 -0.125q-0.265625 -0.125 -0.46875 -0.328125q-0.203125 -0.21875 -0.328125 -0.484375q-0.109375 -0.28125 -0.109375 -0.59375q0 -0.328125 0.109375 -0.609375q0.125 -0.28125 0.328125 -0.484375q0.203125 -0.203125 0.46875 -0.328125q0.28125 -0.125 0.59375 -0.125zm5.875 2.890625l0 -10.21875l6.15625 0l0 1.625l-4.203125 0l0 2.546875l4.0 0l0 1.578125l-4.0 0l0 2.84375l4.203125 0l0 1.625l-6.15625 0zm11.71875 -2.890625q0.328125 0 0.609375 0.125q0.28125 0.125 0.484375 0.328125q0.203125 0.203125 0.3125 0.484375q0.125 0.28125 0.125 0.609375q0 0.3125 -0.125 0.59375q-0.109375 0.265625 -0.3125 0.484375q-0.203125 0.203125 -0.484375 0.328125q-0.28125 0.125 -0.609375 0.125q-0.3125 0 -0.59375 -0.125q-0.265625 -0.125 -0.46875 -0.328125q-0.203125 -0.21875 -0.328125 -0.484375q-0.109375 -0.28125 -0.109375 -0.59375q0 -0.328125 0.109375 -0.609375q0.125 -0.28125 0.328125 -0.484375q0.203125 -0.203125 0.46875 -0.328125q0.28125 -0.125 0.59375 -0.125zm6.859375 4.578125l-1.859375 0l5.453125 -12.734375l1.859375 0l-5.453125 12.734375zm9.109375 -10.375l5.265625 4.421875l-5.265625 4.453125l-1.203125 -1.25l3.859375 -3.1875l-3.859375 -3.203125l1.203125 -1.234375z" fill-rule="nonzero"></path></g></svg>

