<svg xmlns="http://www.w3.org/2000/svg" xmlns:xlink="http://www.w3.org/1999/xlink" version="1.1" id="Layer_1" x="0px" y="0px" width="100px" height="100px" viewBox="0 0 100 100" enable-background="new 0 0 100 100" xml:space="preserve">
<path d="M88.53,63.873l-14-19c-0.016-0.021-0.037-0.035-0.053-0.055c-0.074-0.092-0.154-0.176-0.243-0.252  c-0.008-0.006-0.015-0.012-0.023-0.019C73.881,44.272,73.463,44.1,73,44.1H45.9V37c0-1.049-0.851-1.9-1.9-1.9h-7  c-1.049,0-1.9,0.851-1.9,1.9v7.1H28c-0.604,0-1.171,0.287-1.53,0.773l-14,19c-0.005,0.008-0.007,0.017-0.013,0.025  c-0.102,0.142-0.18,0.298-0.24,0.465c-0.012,0.034-0.021,0.068-0.032,0.103C12.135,64.637,12.1,64.813,12.1,65v28  c0,1.049,0.851,1.9,1.9,1.9h44c0.174,0,0.34-0.031,0.5-0.075c0.16,0.044,0.326,0.075,0.5,0.075h28c1.049,0,1.9-0.851,1.9-1.9V65  C88.9,64.594,88.77,64.199,88.53,63.873z M38.9,38.9h3.2v5.2h-3.2V38.9z M57.1,91.1H38.544c0.222-0.311,0.356-0.689,0.356-1.1V79  c0-1.049-0.851-1.9-1.9-1.9h-2c-1.049,0-1.9,0.851-1.9,1.9v11c0,0.411,0.134,0.789,0.356,1.1H15.9V66.9h41.2V91.1z M58.037,63.104  c-0.013,0-0.024-0.004-0.037-0.004H17.76l1.596-2.165C19.683,61.509,20.292,61.9,21,61.9h2c1.049,0,1.9-0.851,1.9-1.9  s-0.851-1.9-1.9-1.9h-1.556l2.788-3.784C24.15,54.529,24.1,54.758,24.1,55c0,1.049,0.851,1.9,1.9,1.9h2c1.049,0,1.9-0.851,1.9-1.9  s-0.851-1.9-1.9-1.9h-2c-0.451,0-0.86,0.164-1.186,0.427L28.96,47.9H37h7h25.24L58.037,63.104z M85.1,91.1H60.9V65.625L73,49.203  l12.1,16.421V91.1z M70.1,74v8c0,1.049,0.851,1.9,1.9,1.9h2c1.049,0,1.9-0.851,1.9-1.9v-8c0-1.049-0.851-1.9-1.9-1.9h-2  C70.951,72.1,70.1,72.951,70.1,74z M44,83.9h6c1.049,0,1.9-0.851,1.9-1.9v-8c0-1.049-0.851-1.9-1.9-1.9h-6  c-1.049,0-1.9,0.851-1.9,1.9v8C42.1,83.049,42.951,83.9,44,83.9z M22,83.9h6c1.049,0,1.9-0.851,1.9-1.9v-8  c0-1.049-0.851-1.9-1.9-1.9h-6c-1.049,0-1.9,0.851-1.9,1.9v8C20.1,83.049,20.951,83.9,22,83.9z M64,48.1h-2  c-1.049,0-1.9,0.851-1.9,1.9s0.851,1.9,1.9,1.9h2c1.049,0,1.9-0.851,1.9-1.9S65.049,48.1,64,48.1z M46,51.9h2  c1.049,0,1.9-0.851,1.9-1.9s-0.851-1.9-1.9-1.9h-2c-1.049,0-1.9,0.851-1.9,1.9S44.951,51.9,46,51.9z M54,51.9h2  c1.049,0,1.9-0.851,1.9-1.9s-0.851-1.9-1.9-1.9h-2c-1.049,0-1.9,0.851-1.9,1.9S52.951,51.9,54,51.9z M38,51.9h2  c1.049,0,1.9-0.851,1.9-1.9s-0.851-1.9-1.9-1.9h-2c-1.049,0-1.9,0.851-1.9,1.9S36.951,51.9,38,51.9z M32,51.9  c1.049,0,1.9-0.851,1.9-1.9s-0.851-1.9-1.9-1.9h-2c-1.049,0-1.9,0.851-1.9,1.9s0.851,1.9,1.9,1.9H32z M37.9,55  c0-1.049-0.851-1.9-1.9-1.9h-2c-1.049,0-1.9,0.851-1.9,1.9s0.851,1.9,1.9,1.9h2C37.049,56.9,37.9,56.049,37.9,55z M45.9,55  c0-1.049-0.851-1.9-1.9-1.9h-2c-1.049,0-1.9,0.851-1.9,1.9s0.851,1.9,1.9,1.9h2C45.049,56.9,45.9,56.049,45.9,55z M60,53.1h-2  c-1.049,0-1.9,0.851-1.9,1.9s0.851,1.9,1.9,1.9h2c1.049,0,1.9-0.851,1.9-1.9S61.049,53.1,60,53.1z M53.9,55  c0-1.049-0.851-1.9-1.9-1.9h-2c-1.049,0-1.9,0.851-1.9,1.9s0.851,1.9,1.9,1.9h2C53.049,56.9,53.9,56.049,53.9,55z M31,58.1h-2  c-1.049,0-1.9,0.851-1.9,1.9s0.851,1.9,1.9,1.9h2c1.049,0,1.9-0.851,1.9-1.9S32.049,58.1,31,58.1z M55,58.1h-2  c-1.049,0-1.9,0.851-1.9,1.9s0.851,1.9,1.9,1.9h2c1.049,0,1.9-0.851,1.9-1.9S56.049,58.1,55,58.1z M39,58.1h-2  c-1.049,0-1.9,0.851-1.9,1.9s0.851,1.9,1.9,1.9h2c1.049,0,1.9-0.851,1.9-1.9S40.049,58.1,39,58.1z M47,58.1h-2  c-1.049,0-1.9,0.851-1.9,1.9s0.851,1.9,1.9,1.9h2c1.049,0,1.9-0.851,1.9-1.9S48.049,58.1,47,58.1z"/>
</svg>